<svg width="254" height="106" viewBox="0 0 254 106" fill="none" xmlns="http://www.w3.org/2000/svg">
<path d="M41.246 43.4192C41.246 44.4952 41.0308 45.4637 40.6004 46.3245C40.17 47.1853 39.5916 47.9251 38.8653 48.5438C38.139 49.1357 37.2916 49.6064 36.3231 49.9561C35.3547 50.2789 34.3325 50.4404 33.2564 50.4404C32.019 50.4404 30.9564 50.2924 30.0687 49.9965C29.2078 49.7006 28.4681 49.324 27.8493 48.8666C27.2575 48.3824 26.7868 47.8579 26.437 47.2929C26.0873 46.7011 25.8049 46.1362 25.5897 45.5982C25.4014 45.0602 25.2803 44.5625 25.2265 44.1052C25.1727 43.6479 25.1458 43.2982 25.1458 43.056C25.3879 43.5134 25.6973 43.7958 26.0739 43.9034C26.4505 44.011 26.7464 44.0648 26.9616 44.0648C27.5803 44.0648 28.0242 43.9034 28.2932 43.5806C28.5622 43.2578 28.6967 42.9215 28.6967 42.5718C28.6967 42.3566 28.6429 42.1145 28.5353 41.8455C28.4277 41.5765 28.2394 41.3344 27.9704 41.1192C27.7014 40.8771 27.3517 40.6753 26.9213 40.5139C26.4908 40.3525 25.9528 40.2718 25.3072 40.2718C24.9037 40.2718 24.4733 40.3525 24.016 40.5139C23.5586 40.6753 23.1417 40.9309 22.7651 41.2806C22.4154 41.6034 22.1194 42.0204 21.8773 42.5315C21.6352 43.0157 21.5142 43.5806 21.5142 44.2262C21.5142 45.4368 21.8235 46.459 22.4423 47.2929C23.061 48.1269 23.868 48.8666 24.8633 49.5123C25.8856 50.131 27.0289 50.7094 28.2932 51.2474C29.5845 51.7854 30.9026 52.3503 32.2476 52.9421C33.5927 53.5071 34.8974 54.1527 36.1617 54.879C37.453 55.5784 38.5963 56.4393 39.5916 57.4615C40.6138 58.4837 41.4343 59.7077 42.053 61.1335C42.6718 62.5592 42.9811 64.254 42.9811 66.2178C42.9811 68.7195 42.47 70.9792 41.4478 72.9968C40.4255 75.0144 39.0536 76.7495 37.3319 78.2021C35.6372 79.6279 33.6599 80.7174 31.4003 81.4706C29.1406 82.2507 26.7599 82.6408 24.2581 82.6408C21.9715 82.6408 19.806 82.3314 17.7615 81.7127C15.717 81.094 13.9281 80.2331 12.3948 79.1302C10.8614 78.0273 9.63741 76.7226 8.72278 75.2161C7.83505 73.7097 7.39118 72.0822 7.39118 70.3336C7.39118 69.0154 7.60639 67.8722 8.03681 66.9037C8.46722 65.9084 9.05904 65.0879 9.81227 64.4423C10.5924 63.7967 11.4936 63.3124 12.5158 62.9896C13.5649 62.6668 14.6948 62.5054 15.9053 62.5054C16.7931 62.5054 17.6808 62.5996 18.5685 62.7879C19.4563 62.9762 20.2902 63.2586 21.0703 63.6353C21.8504 64.0119 22.5499 64.4692 23.1686 65.0072C23.7873 65.5452 24.285 66.1639 24.6616 66.8634C24.4464 66.8096 24.2312 66.7692 24.016 66.7423C23.8277 66.7154 23.6259 66.702 23.4107 66.702C22.8189 66.702 22.3481 66.8634 21.9984 67.1862C21.6756 67.4821 21.5142 67.9798 21.5142 68.6792C21.5142 69.4324 21.8235 70.0646 22.4423 70.5757C23.061 71.0868 23.747 71.3424 24.5002 71.3424C24.9306 71.3424 25.3341 71.2482 25.7107 71.0599C26.0873 70.8716 26.4101 70.6295 26.6792 70.3336C26.9482 70.0108 27.1499 69.6611 27.2844 69.2845C27.4458 68.9078 27.5265 68.5178 27.5265 68.1143C27.5265 67.4148 27.2844 66.6616 26.8002 65.8546C26.3429 65.0476 25.6838 64.375 24.823 63.837C23.1282 62.7879 21.5276 61.8867 20.0212 61.1335C18.5147 60.3802 17.1293 59.6674 15.865 58.9948C14.6006 58.3223 13.4573 57.6498 12.4351 56.9773C11.4398 56.3048 10.5924 55.5246 9.89297 54.6369C9.19355 53.7223 8.65553 52.6597 8.27891 51.4491C7.9023 50.2117 7.71399 48.7187 7.71399 46.9701C7.71399 44.8988 8.11751 42.9888 8.92454 41.2402C9.75847 39.4648 10.9421 37.9314 12.4755 36.6402C14.0088 35.3489 15.8919 34.3401 18.1247 33.6138C20.3574 32.8606 22.8861 32.484 25.7107 32.484C28.5891 32.484 31.0102 32.8202 32.974 33.4928C34.9646 34.1653 36.5652 35.0261 37.7758 36.0753C39.0132 37.1244 39.901 38.2946 40.439 39.5858C40.977 40.8771 41.246 42.1549 41.246 43.4192Z" fill="#263238"/>
<path d="M2.04615 81.0804C7.51382 76.1414 17.7748 79.2398 24.2624 79.7919C30.6006 80.3311 36.7682 77.3563 39.2698 72.2655C36.2048 74.0296 31.6075 74.8621 25.3267 73.8603C12.6215 71.8335 8.848 74.0372 8.848 74.0372C8.848 74.0372 10.5933 70.9073 25.5528 72.2638C38.372 73.4261 40.2452 66.4918 38.7207 64.425C35.8581 66.8923 31.9294 67.5088 26.2818 65.8594C11.512 61.5462 2.58953 69.1632 2.04615 81.0804Z" fill="#19C078"/>
<path d="M39.7137 71.8244C44.9144 68.6191 45.7477 60.6075 40.2959 56.8471C34.2482 52.6759 29.0514 60.0163 33.1334 63.3115C33.414 60.3356 37.0223 59.193 39.7484 61.006C41.0815 61.8927 43.8283 65.8374 39.7137 71.8244Z" fill="#19C078"/>
<path d="M65.5903 54.195C64.4251 54.195 63.3765 53.9952 62.4443 53.5957C61.5122 53.1796 60.7798 52.597 60.2471 51.848C59.7145 51.0989 59.4482 50.225 59.4482 49.2263H62.4943C62.5608 49.9754 62.8521 50.5912 63.3682 51.074C63.9008 51.5567 64.6415 51.798 65.5903 51.798C66.5724 51.798 67.3381 51.565 67.8874 51.0989C68.4367 50.6162 68.7113 50.0003 68.7113 49.2513C68.7113 48.6687 68.5366 48.1943 68.187 47.8281C67.8541 47.4619 67.4296 47.1789 66.9136 46.9792C66.4143 46.7794 65.7152 46.563 64.8163 46.33C63.6844 46.0304 62.7606 45.7308 62.0448 45.4312C61.3457 45.1149 60.7465 44.6322 60.2471 43.983C59.7478 43.3338 59.4981 42.4683 59.4981 41.3863C59.4981 40.3876 59.7478 39.5137 60.2471 38.7647C60.7465 38.0156 61.4456 37.4413 62.3445 37.0419C63.2433 36.6424 64.2837 36.4426 65.4655 36.4426C67.1467 36.4426 68.5199 36.8671 69.5852 37.716C70.6672 38.5483 71.2664 39.6968 71.3829 41.1616H68.2369C68.187 40.5291 67.8874 39.9881 67.3381 39.5387C66.7888 39.0892 66.0647 38.8645 65.1659 38.8645C64.3502 38.8645 63.6844 39.0726 63.1684 39.4887C62.6524 39.9049 62.3944 40.5041 62.3944 41.2864C62.3944 41.8191 62.5525 42.2602 62.8688 42.6098C63.2017 42.9427 63.6178 43.209 64.1172 43.4087C64.6166 43.6085 65.299 43.8249 66.1646 44.0579C67.3131 44.3742 68.2453 44.6904 68.961 45.0067C69.6934 45.323 70.3093 45.814 70.8087 46.4798C71.3247 47.129 71.5827 48.0029 71.5827 49.1015C71.5827 49.9837 71.3413 50.816 70.8586 51.5983C70.3925 52.3806 69.7017 53.0132 68.7862 53.4959C67.8874 53.9619 66.8221 54.195 65.5903 54.195ZM73.9925 47.129C73.9925 45.7141 74.2755 44.474 74.8414 43.4087C75.424 42.3268 76.223 41.4945 77.2384 40.9119C78.2537 40.3293 79.4189 40.038 80.7339 40.038C82.3984 40.038 83.7717 40.4375 84.8536 41.2365C85.9522 42.0188 86.693 43.1424 87.0758 44.6072H84.0047C83.755 43.9247 83.3555 43.3921 82.8063 43.0092C82.257 42.6264 81.5662 42.435 80.7339 42.435C79.5687 42.435 78.6366 42.8511 77.9375 43.6834C77.255 44.499 76.9138 45.6475 76.9138 47.129C76.9138 48.6104 77.255 49.7673 77.9375 50.5996C78.6366 51.4318 79.5687 51.848 80.7339 51.848C82.3818 51.848 83.4721 51.1239 84.0047 49.6757H87.0758C86.6763 51.074 85.9273 52.1892 84.8287 53.0215C83.7301 53.8371 82.3651 54.2449 80.7339 54.2449C79.4189 54.2449 78.2537 53.9536 77.2384 53.371C76.223 52.7718 75.424 51.9395 74.8414 50.8742C74.2755 49.7923 73.9925 48.5439 73.9925 47.129ZM91.3606 38.4401C90.8446 38.4401 90.4118 38.2653 90.0622 37.9157C89.7127 37.5662 89.5379 37.1334 89.5379 36.6174C89.5379 36.1014 89.7127 35.6686 90.0622 35.3191C90.4118 34.9695 90.8446 34.7947 91.3606 34.7947C91.8599 34.7947 92.2844 34.9695 92.634 35.3191C92.9835 35.6686 93.1583 36.1014 93.1583 36.6174C93.1583 37.1334 92.9835 37.5662 92.634 37.9157C92.2844 38.2653 91.8599 38.4401 91.3606 38.4401ZM92.7588 40.2628V54.0202H89.9124V40.2628H92.7588ZM103.437 40.038C104.519 40.038 105.484 40.2627 106.333 40.7122C107.199 41.1616 107.873 41.8274 108.356 42.7096C108.838 43.5918 109.08 44.6571 109.08 45.9056V54.0202H106.258V46.33C106.258 45.0982 105.95 44.1578 105.335 43.5086C104.719 42.8428 103.878 42.5099 102.813 42.5099C101.747 42.5099 100.899 42.8428 100.266 43.5086C99.6501 44.1578 99.3422 45.0982 99.3422 46.33V54.0202H96.4958V40.2628H99.3422V41.8357C99.8083 41.2698 100.399 40.8287 101.115 40.5124C101.847 40.1962 102.621 40.038 103.437 40.038ZM111.762 47.0791C111.762 45.6975 112.045 44.474 112.611 43.4087C113.193 42.3434 113.976 41.5195 114.958 40.9369C115.956 40.3377 117.063 40.038 118.278 40.038C119.177 40.038 120.059 40.2378 120.925 40.6373C121.807 41.0201 122.506 41.5361 123.022 42.1853V35.5438H125.894V54.0202H123.022V51.9478C122.556 52.6137 121.907 53.163 121.075 53.5957C120.259 54.0285 119.319 54.2449 118.253 54.2449C117.055 54.2449 115.956 53.9453 114.958 53.3461C113.976 52.7302 113.193 51.8813 112.611 50.7993C112.045 49.7007 111.762 48.4606 111.762 47.0791ZM123.022 47.129C123.022 46.1802 122.823 45.3563 122.423 44.6571C122.04 43.958 121.533 43.4254 120.9 43.0592C120.268 42.693 119.585 42.5099 118.853 42.5099C118.12 42.5099 117.438 42.693 116.805 43.0592C116.173 43.4087 115.657 43.9331 115.257 44.6322C114.874 45.3146 114.683 46.1303 114.683 47.0791C114.683 48.0278 114.874 48.8601 115.257 49.5759C115.657 50.2916 116.173 50.8409 116.805 51.2238C117.454 51.59 118.137 51.7731 118.853 51.7731C119.585 51.7731 120.268 51.59 120.9 51.2238C121.533 50.8576 122.04 50.3249 122.423 49.6258C122.823 48.9101 123.022 48.0778 123.022 47.129ZM128.683 47.0791C128.683 45.6975 128.966 44.474 129.532 43.4087C130.115 42.3434 130.897 41.5195 131.879 40.9369C132.878 40.3377 133.977 40.038 135.175 40.038C136.257 40.038 137.198 40.2544 137.997 40.6872C138.812 41.1033 139.461 41.6277 139.944 42.2602V40.2628H142.815V54.0202H139.944V51.9728C139.461 52.622 138.804 53.163 137.972 53.5957C137.139 54.0285 136.191 54.2449 135.125 54.2449C133.943 54.2449 132.861 53.9453 131.879 53.3461C130.897 52.7302 130.115 51.8813 129.532 50.7993C128.966 49.7007 128.683 48.4606 128.683 47.0791ZM139.944 47.129C139.944 46.1802 139.744 45.3563 139.345 44.6571C138.962 43.958 138.454 43.4254 137.822 43.0592C137.189 42.693 136.507 42.5099 135.774 42.5099C135.042 42.5099 134.36 42.693 133.727 43.0592C133.095 43.4087 132.579 43.9331 132.179 44.6322C131.796 45.3146 131.605 46.1303 131.605 47.0791C131.605 48.0278 131.796 48.8601 132.179 49.5759C132.579 50.2916 133.095 50.8409 133.727 51.2238C134.376 51.59 135.059 51.7731 135.774 51.7731C136.507 51.7731 137.189 51.59 137.822 51.2238C138.454 50.8576 138.962 50.3249 139.345 49.6258C139.744 48.9101 139.944 48.0778 139.944 47.129ZM149.4 42.2852C149.883 41.6526 150.541 41.12 151.373 40.6872C152.205 40.2544 153.146 40.038 154.194 40.038C155.393 40.038 156.483 40.3377 157.465 40.9369C158.464 41.5195 159.246 42.3434 159.812 43.4087C160.378 44.474 160.661 45.6975 160.661 47.0791C160.661 48.4606 160.378 49.7007 159.812 50.7993C159.246 51.8813 158.464 52.7302 157.465 53.3461C156.483 53.9453 155.393 54.2449 154.194 54.2449C153.146 54.2449 152.213 54.0368 151.398 53.6207C150.582 53.1879 149.916 52.6553 149.4 52.0228V60.5619H146.554V40.2628H149.4V42.2852ZM157.765 47.0791C157.765 46.1303 157.565 45.3146 157.166 44.6322C156.783 43.9331 156.267 43.4087 155.617 43.0592C154.985 42.693 154.302 42.5099 153.57 42.5099C152.854 42.5099 152.172 42.693 151.523 43.0592C150.89 43.4254 150.374 43.958 149.975 44.6571C149.592 45.3563 149.4 46.1802 149.4 47.129C149.4 48.0778 149.592 48.9101 149.975 49.6258C150.374 50.3249 150.89 50.8576 151.523 51.2238C152.172 51.59 152.854 51.7731 153.57 51.7731C154.302 51.7731 154.985 51.59 155.617 51.2238C156.267 50.8409 156.783 50.2916 157.166 49.5759C157.565 48.8601 157.765 48.0278 157.765 47.0791ZM168.469 54.2449C167.387 54.2449 166.414 54.0535 165.548 53.6706C164.699 53.2712 164.025 52.7385 163.526 52.0727C163.026 51.3902 162.76 50.6329 162.727 49.8006H165.673C165.723 50.3832 165.998 50.8742 166.497 51.2737C167.013 51.6566 167.654 51.848 168.42 51.848C169.218 51.848 169.834 51.6982 170.267 51.3985C170.717 51.0823 170.941 50.6828 170.941 50.2001C170.941 49.6841 170.692 49.3012 170.192 49.0515C169.71 48.8019 168.936 48.5272 167.87 48.2276C166.838 47.9446 165.998 47.67 165.348 47.4036C164.699 47.1373 164.133 46.7295 163.651 46.1802C163.185 45.6309 162.951 44.9068 162.951 44.008C162.951 43.2756 163.168 42.6098 163.601 42.0105C164.033 41.3946 164.649 40.9119 165.448 40.5624C166.264 40.2128 167.196 40.038 168.245 40.038C169.809 40.038 171.066 40.4375 172.015 41.2365C172.98 42.0188 173.496 43.0925 173.563 44.4574H170.717C170.667 43.8415 170.417 43.3505 169.968 42.9843C169.518 42.6181 168.911 42.435 168.145 42.435C167.396 42.435 166.822 42.5765 166.422 42.8594C166.023 43.1424 165.823 43.5169 165.823 43.983C165.823 44.3492 165.956 44.6571 166.222 44.9068C166.489 45.1565 166.813 45.3563 167.196 45.5061C167.579 45.6392 168.145 45.814 168.894 46.0304C169.893 46.2967 170.708 46.5714 171.341 46.8543C171.99 47.1207 172.548 47.5202 173.014 48.0528C173.48 48.5855 173.721 49.2929 173.738 50.1751C173.738 50.9574 173.521 51.6566 173.089 52.2724C172.656 52.8883 172.04 53.371 171.241 53.7206C170.459 54.0701 169.535 54.2449 168.469 54.2449ZM189.272 40.2628V54.0202H186.426V52.3973C185.977 52.9632 185.386 53.4126 184.653 53.7456C183.938 54.0618 183.172 54.2199 182.356 54.2199C181.274 54.2199 180.301 53.9952 179.435 53.5458C178.586 53.0964 177.912 52.4306 177.413 51.5484C176.93 50.6661 176.688 49.6008 176.688 48.3524V40.2628H179.51V47.928C179.51 49.1597 179.818 50.1085 180.434 50.7743C181.05 51.4235 181.89 51.7481 182.955 51.7481C184.021 51.7481 184.861 51.4235 185.477 50.7743C186.11 50.1085 186.426 49.1597 186.426 47.928V40.2628H189.272ZM198.022 54.2449C196.94 54.2449 195.966 54.0535 195.1 53.6706C194.251 53.2712 193.577 52.7385 193.078 52.0727C192.579 51.3902 192.312 50.6329 192.279 49.8006H195.225C195.275 50.3832 195.55 50.8742 196.049 51.2737C196.565 51.6566 197.206 51.848 197.972 51.848C198.771 51.848 199.387 51.6982 199.819 51.3985C200.269 51.0823 200.493 50.6828 200.493 50.2001C200.493 49.6841 200.244 49.3012 199.744 49.0515C199.262 48.8019 198.488 48.5272 197.422 48.2276C196.39 47.9446 195.55 47.67 194.901 47.4036C194.251 47.1373 193.685 46.7295 193.203 46.1802C192.737 45.6309 192.504 44.9068 192.504 44.008C192.504 43.2756 192.72 42.6098 193.153 42.0105C193.586 41.3946 194.201 40.9119 195 40.5624C195.816 40.2128 196.748 40.038 197.797 40.038C199.362 40.038 200.618 40.4375 201.567 41.2365C202.533 42.0188 203.049 43.0925 203.115 44.4574H200.269C200.219 43.8415 199.969 43.3505 199.52 42.9843C199.07 42.6181 198.463 42.435 197.697 42.435C196.948 42.435 196.374 42.5765 195.974 42.8594C195.575 43.1424 195.375 43.5169 195.375 43.983C195.375 44.3492 195.508 44.6571 195.774 44.9068C196.041 45.1565 196.365 45.3563 196.748 45.5061C197.131 45.6392 197.697 45.814 198.446 46.0304C199.445 46.2967 200.26 46.5714 200.893 46.8543C201.542 47.1207 202.1 47.5202 202.566 48.0528C203.032 48.5855 203.273 49.2929 203.29 50.1751C203.29 50.9574 203.073 51.6566 202.641 52.2724C202.208 52.8883 201.592 53.371 200.793 53.7206C200.011 54.0701 199.087 54.2449 198.022 54.2449ZM62.719 61.6673V79.0202H59.8726V61.6673H62.719ZM73.3972 65.038C74.4791 65.038 75.4445 65.2627 76.2935 65.7122C77.159 66.1616 77.8332 66.8274 78.3159 67.7096C78.7986 68.5918 79.04 69.6571 79.04 70.9056V79.0202H76.2186V71.33C76.2186 70.0982 75.9106 69.1578 75.2947 68.5086C74.6789 67.8428 73.8383 67.5099 72.773 67.5099C71.7076 67.5099 70.8587 67.8428 70.2262 68.5086C69.6103 69.1578 69.3024 70.0982 69.3024 71.33V79.0202H66.456V65.2628H69.3024V66.8357C69.7685 66.2698 70.3594 65.8287 71.0751 65.5124C71.8075 65.1962 72.5815 65.038 73.3972 65.038ZM81.7219 72.0791C81.7219 70.6975 82.0049 69.474 82.5708 68.4087C83.1534 67.3434 83.9357 66.5195 84.9178 65.9369C85.9165 65.3377 87.0235 65.038 88.2386 65.038C89.1374 65.038 90.0196 65.2378 90.8852 65.6373C91.7674 66.0201 92.4665 66.5361 92.9825 67.1853V60.5438H95.8539V79.0202H92.9825V76.9478C92.5165 77.6137 91.8673 78.163 91.035 78.5957C90.2194 79.0285 89.2789 79.2449 88.2136 79.2449C87.0151 79.2449 85.9165 78.9453 84.9178 78.3461C83.9357 77.7302 83.1534 76.8813 82.5708 75.7993C82.0049 74.7007 81.7219 73.4606 81.7219 72.0791ZM92.9825 72.129C92.9825 71.1802 92.7828 70.3563 92.3833 69.6571C92.0004 68.958 91.4928 68.4254 90.8602 68.0592C90.2277 67.693 89.5452 67.5099 88.8128 67.5099C88.0804 67.5099 87.398 67.693 86.7655 68.0592C86.1329 68.4087 85.6169 68.9331 85.2174 69.6322C84.8346 70.3146 84.6432 71.1303 84.6432 72.0791C84.6432 73.0278 84.8346 73.8601 85.2174 74.5759C85.6169 75.2916 86.1329 75.8409 86.7655 76.2238C87.4146 76.59 88.0971 76.7731 88.8128 76.7731C89.5452 76.7731 90.2277 76.59 90.8602 76.2238C91.4928 75.8576 92.0004 75.3249 92.3833 74.6258C92.7828 73.9101 92.9825 73.0778 92.9825 72.129ZM105.56 79.2449C104.262 79.2449 103.088 78.9536 102.039 78.371C100.991 77.7718 100.167 76.9395 99.5675 75.8742C98.9683 74.7923 98.6686 73.5439 98.6686 72.129C98.6686 70.7308 98.9766 69.4907 99.5925 68.4087C100.208 67.3268 101.049 66.4945 102.114 65.9119C103.18 65.3293 104.37 65.038 105.685 65.038C107 65.038 108.19 65.3293 109.255 65.9119C110.32 66.4945 111.161 67.3268 111.777 68.4087C112.393 69.4907 112.701 70.7308 112.701 72.129C112.701 73.5272 112.384 74.7673 111.752 75.8492C111.119 76.9312 110.254 77.7718 109.155 78.371C108.073 78.9536 106.875 79.2449 105.56 79.2449ZM105.56 76.7731C106.292 76.7731 106.975 76.5983 107.607 76.2487C108.256 75.8992 108.781 75.3749 109.18 74.6757C109.58 73.9766 109.779 73.1277 109.779 72.129C109.779 71.1303 109.588 70.2897 109.205 69.6072C108.822 68.9081 108.315 68.3838 107.682 68.0342C107.05 67.6847 106.367 67.5099 105.635 67.5099C104.902 67.5099 104.22 67.6847 103.587 68.0342C102.971 68.3838 102.48 68.9081 102.114 69.6072C101.748 70.2897 101.565 71.1303 101.565 72.129C101.565 73.6104 101.939 74.759 102.689 75.5746C103.454 76.3736 104.411 76.7731 105.56 76.7731ZM122.456 65.038C123.538 65.038 124.503 65.2627 125.352 65.7122C126.218 66.1616 126.892 66.8274 127.374 67.7096C127.857 68.5918 128.098 69.6571 128.098 70.9056V79.0202H125.277V71.33C125.277 70.0982 124.969 69.1578 124.353 68.5086C123.737 67.8428 122.897 67.5099 121.831 67.5099C120.766 67.5099 119.917 67.8428 119.285 68.5086C118.669 69.1578 118.361 70.0982 118.361 71.33V79.0202H115.515V65.2628H118.361V66.8357C118.827 66.2698 119.418 65.8287 120.134 65.5124C120.866 65.1962 121.64 65.038 122.456 65.038ZM144.338 71.8044C144.338 72.3204 144.305 72.7865 144.238 73.2026H133.727C133.81 74.3012 134.218 75.1834 134.95 75.8492C135.682 76.5151 136.581 76.848 137.647 76.848C139.178 76.848 140.26 76.2071 140.893 74.9254H143.964C143.547 76.1905 142.79 77.2308 141.691 78.0464C140.61 78.8454 139.261 79.2449 137.647 79.2449C136.332 79.2449 135.15 78.9536 134.101 78.371C133.069 77.7718 132.254 76.9395 131.654 75.8742C131.072 74.7923 130.78 73.5439 130.78 72.129C130.78 70.7141 131.063 69.474 131.629 68.4087C132.212 67.3268 133.019 66.4945 134.051 65.9119C135.1 65.3293 136.298 65.038 137.647 65.038C138.945 65.038 140.102 65.321 141.117 65.887C142.133 66.4529 142.923 67.2519 143.489 68.2839C144.055 69.2993 144.338 70.4728 144.338 71.8044ZM141.367 70.9056C141.35 69.8569 140.976 69.0163 140.243 68.3838C139.511 67.7512 138.604 67.435 137.522 67.435C136.54 67.435 135.699 67.7512 135 68.3838C134.301 68.9996 133.885 69.8402 133.752 70.9056H141.367ZM152.133 79.2449C151.051 79.2449 150.077 79.0535 149.212 78.6706C148.363 78.2712 147.689 77.7385 147.189 77.0727C146.69 76.3902 146.423 75.6329 146.39 74.8006H149.336C149.386 75.3832 149.661 75.8742 150.16 76.2737C150.676 76.6566 151.317 76.848 152.083 76.848C152.882 76.848 153.498 76.6982 153.931 76.3985C154.38 76.0823 154.605 75.6828 154.605 75.2001C154.605 74.6841 154.355 74.3012 153.856 74.0515C153.373 73.8019 152.599 73.5272 151.534 73.2276C150.502 72.9446 149.661 72.67 149.012 72.4036C148.363 72.1373 147.797 71.7295 147.314 71.1802C146.848 70.6309 146.615 69.9068 146.615 69.008C146.615 68.2756 146.831 67.6098 147.264 67.0105C147.697 66.3946 148.313 65.9119 149.112 65.5624C149.927 65.2128 150.859 65.038 151.908 65.038C153.473 65.038 154.73 65.4375 155.678 66.2365C156.644 67.0188 157.16 68.0925 157.226 69.4574H154.38C154.33 68.8415 154.08 68.3505 153.631 67.9843C153.182 67.6181 152.574 67.435 151.808 67.435C151.059 67.435 150.485 67.5765 150.085 67.8594C149.686 68.1424 149.486 68.5169 149.486 68.983C149.486 69.3492 149.619 69.6571 149.886 69.9068C150.152 70.1565 150.477 70.3563 150.859 70.5061C151.242 70.6392 151.808 70.814 152.557 71.0304C153.556 71.2967 154.372 71.5714 155.004 71.8543C155.653 72.1207 156.211 72.5202 156.677 73.0528C157.143 73.5855 157.385 74.2929 157.401 75.1751C157.401 75.9574 157.185 76.6566 156.752 77.2724C156.319 77.8883 155.703 78.371 154.904 78.7206C154.122 79.0701 153.198 79.2449 152.133 79.2449ZM161.925 63.4401C161.409 63.4401 160.976 63.2653 160.627 62.9157C160.277 62.5662 160.102 62.1334 160.102 61.6174C160.102 61.1014 160.277 60.6686 160.627 60.3191C160.976 59.9695 161.409 59.7947 161.925 59.7947C162.424 59.7947 162.849 59.9695 163.198 60.3191C163.548 60.6686 163.723 61.1014 163.723 61.6174C163.723 62.1334 163.548 62.5662 163.198 62.9157C162.849 63.2653 162.424 63.4401 161.925 63.4401ZM163.323 65.2628V79.0202H160.477V65.2628H163.323ZM166.111 72.0791C166.111 70.6975 166.394 69.474 166.96 68.4087C167.543 67.3434 168.325 66.5195 169.307 65.9369C170.306 65.3377 171.405 65.038 172.603 65.038C173.685 65.038 174.625 65.2544 175.424 65.6872C176.24 66.1033 176.889 66.6277 177.372 67.2602V65.2628H180.243V79.0202H177.372V76.9728C176.889 77.622 176.232 78.163 175.399 78.5957C174.567 79.0285 173.618 79.2449 172.553 79.2449C171.371 79.2449 170.289 78.9453 169.307 78.3461C168.325 77.7302 167.543 76.8813 166.96 75.7993C166.394 74.7007 166.111 73.4606 166.111 72.0791ZM177.372 72.129C177.372 71.1802 177.172 70.3563 176.773 69.6571C176.39 68.958 175.882 68.4254 175.25 68.0592C174.617 67.693 173.935 67.5099 173.202 67.5099C172.47 67.5099 171.787 67.693 171.155 68.0592C170.522 68.4087 170.006 68.9331 169.607 69.6322C169.224 70.3146 169.033 71.1303 169.033 72.0791C169.033 73.0278 169.224 73.8601 169.607 74.5759C170.006 75.2916 170.522 75.8409 171.155 76.2238C171.804 76.59 172.487 76.7731 173.202 76.7731C173.935 76.7731 174.617 76.59 175.25 76.2238C175.882 75.8576 176.39 75.3249 176.773 74.6258C177.172 73.9101 177.372 73.0778 177.372 72.129Z" fill="#263238"/>
</svg>
